<?xml version="1.0" encoding="UTF-8" standalone="no"?>
<!DOCTYPE svg PUBLIC "-//W3C//DTD SVG 1.1//EN"
 "http://www.w3.org/Graphics/SVG/1.1/DTD/svg11.dtd">
<!-- Generated by graphviz version 12.1.2 (20240928.0832)
 -->
<!-- Title: public.products Pages: 1 -->
<svg width="862pt" height="756pt"
 viewBox="0.00 0.00 862.27 756.00" xmlns="http://www.w3.org/2000/svg" xmlns:xlink="http://www.w3.org/1999/xlink">
<g id="graph0" class="graph" transform="scale(1 1) rotate(0) translate(4 752)">
<title>public.products</title>
<polygon fill="white" stroke="none" points="-4,4 -4,-752 858.27,-752 858.27,4 -4,4"/>
<!-- public.products -->
<g id="node1" class="node">
<title>public.products</title>
<polygon fill="#efefef" stroke="none" points="281.51,-292.6 281.51,-328.2 571.76,-328.2 571.76,-292.6 281.51,-292.6"/>
<polygon fill="none" stroke="black" points="281.51,-292.6 281.51,-328.2 571.76,-328.2 571.76,-292.6 281.51,-292.6"/>
<text text-anchor="start" x="308.65" y="-306" font-family="Arial Bold" font-size="18.00">public.products</text>
<text text-anchor="start" x="420.13" y="-306" font-family="Arial" font-size="14.00">    </text>
<text text-anchor="start" x="451.25" y="-306" font-family="Arial" font-size="14.00" fill="#666666">[BASE TABLE]</text>
<polygon fill="none" stroke="black" points="281.51,-261.8 281.51,-292.6 571.76,-292.6 571.76,-261.8 281.51,-261.8"/>
<text text-anchor="start" x="288.51" y="-274" font-family="Arial" font-size="14.00">id </text>
<text text-anchor="start" x="303.29" y="-274" font-family="Arial" font-size="14.00" fill="#666666">[bigint]</text>
<polygon fill="none" stroke="black" points="281.51,-231 281.51,-261.8 571.76,-261.8 571.76,-231 281.51,-231"/>
<text text-anchor="start" x="288.51" y="-243.2" font-family="Arial" font-size="14.00">name </text>
<text text-anchor="start" x="327.42" y="-243.2" font-family="Arial" font-size="14.00" fill="#666666">[varchar(255)]</text>
<polygon fill="none" stroke="black" points="281.51,-200.2 281.51,-231 571.76,-231 571.76,-200.2 281.51,-200.2"/>
<text text-anchor="start" x="288.51" y="-212.4" font-family="Arial" font-size="14.00">slug </text>
<text text-anchor="start" x="318.08" y="-212.4" font-family="Arial" font-size="14.00" fill="#666666">[varchar(255)]</text>
<polygon fill="none" stroke="black" points="281.51,-169.4 281.51,-200.2 571.76,-200.2 571.76,-169.4 281.51,-169.4"/>
<text text-anchor="start" x="288.51" y="-181.6" font-family="Arial" font-size="14.00">price_cents </text>
<text text-anchor="start" x="363.99" y="-181.6" font-family="Arial" font-size="14.00" fill="#666666">[integer]</text>
<polygon fill="none" stroke="black" points="281.51,-138.6 281.51,-169.4 571.76,-169.4 571.76,-138.6 281.51,-138.6"/>
<text text-anchor="start" x="288.51" y="-150.8" font-family="Arial" font-size="14.00">stock </text>
<text text-anchor="start" x="325.07" y="-150.8" font-family="Arial" font-size="14.00" fill="#666666">[integer]</text>
<polygon fill="none" stroke="black" points="281.51,-107.8 281.51,-138.6 571.76,-138.6 571.76,-107.8 281.51,-107.8"/>
<text text-anchor="start" x="288.51" y="-120" font-family="Arial" font-size="14.00">description </text>
<text text-anchor="start" x="360.1" y="-120" font-family="Arial" font-size="14.00" fill="#666666">[text]</text>
<polygon fill="none" stroke="black" points="281.51,-77 281.51,-107.8 571.76,-107.8 571.76,-77 281.51,-77"/>
<text text-anchor="start" x="288.51" y="-89.2" font-family="Arial" font-size="14.00">created_at </text>
<text text-anchor="start" x="358.56" y="-89.2" font-family="Arial" font-size="14.00" fill="#666666">[timestamp(0) without time zone]</text>
<polygon fill="none" stroke="black" points="281.51,-46.2 281.51,-77 571.76,-77 571.76,-46.2 281.51,-46.2"/>
<text text-anchor="start" x="288.51" y="-58.4" font-family="Arial" font-size="14.00">updated_at </text>
<text text-anchor="start" x="362.47" y="-58.4" font-family="Arial" font-size="14.00" fill="#666666">[timestamp(0) without time zone]</text>
<polygon fill="none" stroke="black" stroke-width="3" points="280.01,-44.7 280.01,-329.7 573.26,-329.7 573.26,-44.7 280.01,-44.7"/>
</g>
<!-- public.cart_items -->
<g id="node2" class="node">
<title>public.cart_items</title>
<polygon fill="#efefef" stroke="none" points="84.51,-653.8 84.51,-689.4 374.76,-689.4 374.76,-653.8 84.51,-653.8"/>
<polygon fill="none" stroke="black" points="84.51,-653.8 84.51,-689.4 374.76,-689.4 374.76,-653.8 84.51,-653.8"/>
<text text-anchor="start" x="105.16" y="-667.2" font-family="Arial Bold" font-size="18.00">public.cart_items</text>
<text text-anchor="start" x="229.62" y="-667.2" font-family="Arial" font-size="14.00">    </text>
<text text-anchor="start" x="260.74" y="-667.2" font-family="Arial" font-size="14.00" fill="#666666">[BASE TABLE]</text>
<polygon fill="none" stroke="black" points="84.51,-623 84.51,-653.8 374.76,-653.8 374.76,-623 84.51,-623"/>
<text text-anchor="start" x="91.51" y="-635.2" font-family="Arial" font-size="14.00">id </text>
<text text-anchor="start" x="106.29" y="-635.2" font-family="Arial" font-size="14.00" fill="#666666">[bigint]</text>
<polygon fill="none" stroke="black" points="84.51,-592.2 84.51,-623 374.76,-623 374.76,-592.2 84.51,-592.2"/>
<text text-anchor="start" x="91.51" y="-604.4" font-family="Arial" font-size="14.00">cart_id </text>
<text text-anchor="start" x="137.42" y="-604.4" font-family="Arial" font-size="14.00" fill="#666666">[bigint]</text>
<polygon fill="none" stroke="black" points="84.51,-561.4 84.51,-592.2 374.76,-592.2 374.76,-561.4 84.51,-561.4"/>
<text text-anchor="start" x="91.51" y="-573.6" font-family="Arial" font-size="14.00">product_id </text>
<text text-anchor="start" x="160.78" y="-573.6" font-family="Arial" font-size="14.00" fill="#666666">[bigint]</text>
<polygon fill="none" stroke="black" points="84.51,-530.6 84.51,-561.4 374.76,-561.4 374.76,-530.6 84.51,-530.6"/>
<text text-anchor="start" x="91.51" y="-542.8" font-family="Arial" font-size="14.00">quantity </text>
<text text-anchor="start" x="144.43" y="-542.8" font-family="Arial" font-size="14.00" fill="#666666">[integer]</text>
<polygon fill="none" stroke="black" points="84.51,-499.8 84.51,-530.6 374.76,-530.6 374.76,-499.8 84.51,-499.8"/>
<text text-anchor="start" x="91.51" y="-512" font-family="Arial" font-size="14.00">created_at </text>
<text text-anchor="start" x="161.56" y="-512" font-family="Arial" font-size="14.00" fill="#666666">[timestamp(0) without time zone]</text>
<polygon fill="none" stroke="black" points="84.51,-469 84.51,-499.8 374.76,-499.8 374.76,-469 84.51,-469"/>
<text text-anchor="start" x="91.51" y="-481.2" font-family="Arial" font-size="14.00">updated_at </text>
<text text-anchor="start" x="165.47" y="-481.2" font-family="Arial" font-size="14.00" fill="#666666">[timestamp(0) without time zone]</text>
</g>
<!-- public.cart_items&#45;&gt;public.products -->
<g id="edge1" class="edge">
<title>public.cart_items:product_id&#45;&gt;public.products:id</title>
<path fill="none" stroke="black" d="M385.88,-575.98C439.18,-566.7 407.21,-480.32 374.76,-425.8 350.56,-385.13 305.79,-415.02 281.51,-374.4 259.35,-337.32 237.31,-277.2 280.51,-277.2"/>
<polygon fill="black" stroke="black" points="386.06,-575.97 375.73,-572.29 380.75,-576.4 376.43,-576.75 376.43,-576.75 376.43,-576.75 380.75,-576.4 376.46,-581.26 386.06,-575.97"/>
<text text-anchor="start" x="7" y="-586.8" font-family="Arial" font-size="10.00">FOREIGN KEY (product_id) REFERENCES products(id) ON DELETE CASCADE</text>
</g>
<!-- public.order_items -->
<g id="node3" class="node">
<title>public.order_items</title>
<polygon fill="#efefef" stroke="none" points="479.51,-669.2 479.51,-704.8 769.76,-704.8 769.76,-669.2 479.51,-669.2"/>
<polygon fill="none" stroke="black" points="479.51,-669.2 479.51,-704.8 769.76,-704.8 769.76,-669.2 479.51,-669.2"/>
<text text-anchor="start" x="494.66" y="-682.6" font-family="Arial Bold" font-size="18.00">public.order_items</text>
<text text-anchor="start" x="630.12" y="-682.6" font-family="Arial" font-size="14.00">    </text>
<text text-anchor="start" x="661.24" y="-682.6" font-family="Arial" font-size="14.00" fill="#666666">[BASE TABLE]</text>
<polygon fill="none" stroke="black" points="479.51,-638.4 479.51,-669.2 769.76,-669.2 769.76,-638.4 479.51,-638.4"/>
<text text-anchor="start" x="486.51" y="-650.6" font-family="Arial" font-size="14.00">id </text>
<text text-anchor="start" x="501.29" y="-650.6" font-family="Arial" font-size="14.00" fill="#666666">[bigint]</text>
<polygon fill="none" stroke="black" points="479.51,-607.6 479.51,-638.4 769.76,-638.4 769.76,-607.6 479.51,-607.6"/>
<text text-anchor="start" x="486.51" y="-619.8" font-family="Arial" font-size="14.00">order_id </text>
<text text-anchor="start" x="541.76" y="-619.8" font-family="Arial" font-size="14.00" fill="#666666">[bigint]</text>
<polygon fill="none" stroke="black" points="479.51,-576.8 479.51,-607.6 769.76,-607.6 769.76,-576.8 479.51,-576.8"/>
<text text-anchor="start" x="486.51" y="-589" font-family="Arial" font-size="14.00">product_id </text>
<text text-anchor="start" x="555.78" y="-589" font-family="Arial" font-size="14.00" fill="#666666">[bigint]</text>
<polygon fill="none" stroke="black" points="479.51,-546 479.51,-576.8 769.76,-576.8 769.76,-546 479.51,-546"/>
<text text-anchor="start" x="486.51" y="-558.2" font-family="Arial" font-size="14.00">quantity </text>
<text text-anchor="start" x="539.43" y="-558.2" font-family="Arial" font-size="14.00" fill="#666666">[integer]</text>
<polygon fill="none" stroke="black" points="479.51,-515.2 479.51,-546 769.76,-546 769.76,-515.2 479.51,-515.2"/>
<text text-anchor="start" x="486.51" y="-527.4" font-family="Arial" font-size="14.00">unit_price_cents </text>
<text text-anchor="start" x="592.35" y="-527.4" font-family="Arial" font-size="14.00" fill="#666666">[integer]</text>
<polygon fill="none" stroke="black" points="479.51,-484.4 479.51,-515.2 769.76,-515.2 769.76,-484.4 479.51,-484.4"/>
<text text-anchor="start" x="486.51" y="-496.6" font-family="Arial" font-size="14.00">created_at </text>
<text text-anchor="start" x="556.56" y="-496.6" font-family="Arial" font-size="14.00" fill="#666666">[timestamp(0) without time zone]</text>
<polygon fill="none" stroke="black" points="479.51,-453.6 479.51,-484.4 769.76,-484.4 769.76,-453.6 479.51,-453.6"/>
<text text-anchor="start" x="486.51" y="-465.8" font-family="Arial" font-size="14.00">updated_at </text>
<text text-anchor="start" x="560.47" y="-465.8" font-family="Arial" font-size="14.00" fill="#666666">[timestamp(0) without time zone]</text>
</g>
<!-- public.order_items&#45;&gt;public.products -->
<g id="edge2" class="edge">
<title>public.order_items:product_id&#45;&gt;public.products:id</title>
<path fill="none" stroke="black" d="M468.32,-591.52C400.96,-581.95 435.8,-474 479.51,-410.4 504.44,-374.13 546.75,-410.61 571.76,-374.4 596.32,-338.85 615.96,-277.2 572.76,-277.2"/>
<polygon fill="black" stroke="black" points="468.2,-591.51 477.87,-596.67 473.52,-591.87 477.84,-592.16 477.84,-592.16 477.84,-592.16 473.52,-591.87 478.48,-587.69 468.2,-591.51"/>
<text text-anchor="start" x="485.51" y="-602.2" font-family="Arial" font-size="10.00">FOREIGN KEY (product_id) REFERENCES products(id) ON DELETE CASCADE</text>
</g>
</g>
</svg>
